<mxfile host="app.diagrams.net" modified="2024-05-18T18:15:12.020Z" agent="Mozilla/5.0 (Windows NT 10.0; Win64; x64) AppleWebKit/537.36 (KHTML, like Gecko) Chrome/124.0.0.0 Safari/537.36" etag="uQ7OL-F-NY56LpMtcHWT" version="24.4.3" type="device">
  <diagram name="Pagină-1" id="kNwXTh53voXS9UOptByz">
    <mxGraphModel dx="712" dy="788" grid="1" gridSize="10" guides="1" tooltips="1" connect="1" arrows="1" fold="1" page="1" pageScale="1" pageWidth="827" pageHeight="1169" background="#ffffff" math="0" shadow="0">
      <root>
        <mxCell id="0" />
        <mxCell id="1" parent="0" />
        <mxCell id="CeDH94izONLsoh-cn26r-31" value="" style="swimlane;startSize=0;" parent="1" vertex="1">
          <mxGeometry x="560" y="90" width="160" height="70" as="geometry">
            <mxRectangle x="240" y="225" width="50" height="40" as="alternateBounds" />
          </mxGeometry>
        </mxCell>
        <mxCell id="CeDH94izONLsoh-cn26r-32" value="&lt;b&gt;&lt;font style=&quot;font-size: 16px;&quot;&gt;Frontend&lt;/font&gt;&lt;/b&gt;" style="text;html=1;align=center;verticalAlign=middle;resizable=0;points=[];autosize=1;strokeWidth=4;" parent="CeDH94izONLsoh-cn26r-31" vertex="1">
          <mxGeometry x="32.5" y="20" width="90" height="30" as="geometry" />
        </mxCell>
        <mxCell id="CeDH94izONLsoh-cn26r-51" style="edgeStyle=orthogonalEdgeStyle;rounded=0;orthogonalLoop=1;jettySize=auto;html=1;exitX=0.5;exitY=0;exitDx=0;exitDy=0;entryX=0.5;entryY=1;entryDx=0;entryDy=0;" parent="1" source="CeDH94izONLsoh-cn26r-49" target="CeDH94izONLsoh-cn26r-31" edge="1">
          <mxGeometry relative="1" as="geometry" />
        </mxCell>
        <mxCell id="CeDH94izONLsoh-cn26r-49" value="" style="swimlane;startSize=0;" parent="1" vertex="1">
          <mxGeometry x="560" y="210" width="160" height="70" as="geometry">
            <mxRectangle x="240" y="225" width="50" height="40" as="alternateBounds" />
          </mxGeometry>
        </mxCell>
        <mxCell id="CeDH94izONLsoh-cn26r-50" value="&lt;b&gt;&lt;font style=&quot;font-size: 16px;&quot;&gt;Server&lt;/font&gt;&lt;/b&gt;" style="text;html=1;align=center;verticalAlign=middle;resizable=0;points=[];autosize=1;strokeColor=none;fillColor=none;strokeWidth=4;" parent="CeDH94izONLsoh-cn26r-49" vertex="1">
          <mxGeometry x="42.5" y="20" width="70" height="30" as="geometry" />
        </mxCell>
        <mxCell id="CeDH94izONLsoh-cn26r-76" style="edgeStyle=orthogonalEdgeStyle;rounded=0;orthogonalLoop=1;jettySize=auto;html=1;exitX=0.5;exitY=0;exitDx=0;exitDy=0;entryX=0.25;entryY=1;entryDx=0;entryDy=0;" parent="1" source="CeDH94izONLsoh-cn26r-55" target="CeDH94izONLsoh-cn26r-57" edge="1">
          <mxGeometry relative="1" as="geometry" />
        </mxCell>
        <mxCell id="CeDH94izONLsoh-cn26r-55" value="" style="swimlane;startSize=0;" parent="1" vertex="1">
          <mxGeometry x="580" y="440" width="160" height="70" as="geometry">
            <mxRectangle x="240" y="225" width="50" height="40" as="alternateBounds" />
          </mxGeometry>
        </mxCell>
        <mxCell id="CeDH94izONLsoh-cn26r-56" value="&lt;b&gt;&lt;font style=&quot;font-size: 16px;&quot;&gt;Modul care&amp;nbsp;&lt;/font&gt;&lt;/b&gt;&lt;div&gt;&lt;b&gt;&lt;font style=&quot;font-size: 16px;&quot;&gt;clasifică textul&lt;/font&gt;&lt;/b&gt;&lt;/div&gt;" style="text;html=1;align=center;verticalAlign=middle;resizable=0;points=[];autosize=1;strokeColor=none;fillColor=none;strokeWidth=4;" parent="CeDH94izONLsoh-cn26r-55" vertex="1">
          <mxGeometry x="10" y="10" width="130" height="50" as="geometry" />
        </mxCell>
        <mxCell id="CeDH94izONLsoh-cn26r-75" style="edgeStyle=orthogonalEdgeStyle;rounded=0;orthogonalLoop=1;jettySize=auto;html=1;exitX=0.5;exitY=0;exitDx=0;exitDy=0;entryX=0.75;entryY=1;entryDx=0;entryDy=0;" parent="1" source="CeDH94izONLsoh-cn26r-57" target="CeDH94izONLsoh-cn26r-49" edge="1">
          <mxGeometry relative="1" as="geometry" />
        </mxCell>
        <mxCell id="CeDH94izONLsoh-cn26r-57" value="" style="swimlane;startSize=0;" parent="1" vertex="1">
          <mxGeometry x="680" y="330" width="160" height="70" as="geometry">
            <mxRectangle x="240" y="225" width="50" height="40" as="alternateBounds" />
          </mxGeometry>
        </mxCell>
        <mxCell id="CeDH94izONLsoh-cn26r-58" value="&lt;b&gt;&lt;font style=&quot;font-size: 16px;&quot;&gt;Modul procesare&amp;nbsp;&lt;/font&gt;&lt;/b&gt;&lt;div&gt;&lt;b&gt;&lt;font style=&quot;font-size: 16px;&quot;&gt;output&lt;/font&gt;&lt;/b&gt;&lt;/div&gt;" style="text;html=1;align=center;verticalAlign=middle;resizable=0;points=[];autosize=1;strokeColor=none;fillColor=none;strokeWidth=4;" parent="CeDH94izONLsoh-cn26r-57" vertex="1">
          <mxGeometry x="-2.5" y="10" width="160" height="50" as="geometry" />
        </mxCell>
        <mxCell id="CeDH94izONLsoh-cn26r-77" style="edgeStyle=orthogonalEdgeStyle;rounded=0;orthogonalLoop=1;jettySize=auto;html=1;exitX=0.5;exitY=0;exitDx=0;exitDy=0;entryX=0.75;entryY=1;entryDx=0;entryDy=0;" parent="1" source="CeDH94izONLsoh-cn26r-59" target="CeDH94izONLsoh-cn26r-57" edge="1">
          <mxGeometry relative="1" as="geometry" />
        </mxCell>
        <mxCell id="CeDH94izONLsoh-cn26r-59" value="" style="swimlane;startSize=0;" parent="1" vertex="1">
          <mxGeometry x="780" y="440" width="160" height="70" as="geometry">
            <mxRectangle x="240" y="225" width="50" height="40" as="alternateBounds" />
          </mxGeometry>
        </mxCell>
        <mxCell id="CeDH94izONLsoh-cn26r-60" value="&lt;b&gt;&lt;font style=&quot;font-size: 16px;&quot;&gt;Modul care&amp;nbsp;&lt;/font&gt;&lt;/b&gt;&lt;div&gt;&lt;b&gt;&lt;font style=&quot;font-size: 16px;&quot;&gt;clasifică imaginile&lt;/font&gt;&lt;/b&gt;&lt;/div&gt;" style="text;html=1;align=center;verticalAlign=middle;resizable=0;points=[];autosize=1;strokeColor=none;fillColor=none;strokeWidth=4;" parent="CeDH94izONLsoh-cn26r-59" vertex="1">
          <mxGeometry x="-1.25" y="10" width="160" height="50" as="geometry" />
        </mxCell>
        <mxCell id="CeDH94izONLsoh-cn26r-70" style="edgeStyle=orthogonalEdgeStyle;rounded=0;orthogonalLoop=1;jettySize=auto;html=1;exitX=0.5;exitY=0;exitDx=0;exitDy=0;entryX=0.5;entryY=1;entryDx=0;entryDy=0;" parent="1" source="CeDH94izONLsoh-cn26r-64" target="CeDH94izONLsoh-cn26r-55" edge="1">
          <mxGeometry relative="1" as="geometry" />
        </mxCell>
        <mxCell id="CeDH94izONLsoh-cn26r-64" value="" style="swimlane;startSize=0;" parent="1" vertex="1">
          <mxGeometry x="580" y="540" width="160" height="70" as="geometry">
            <mxRectangle x="240" y="225" width="50" height="40" as="alternateBounds" />
          </mxGeometry>
        </mxCell>
        <mxCell id="CeDH94izONLsoh-cn26r-65" value="&lt;b&gt;&lt;font style=&quot;font-size: 16px;&quot;&gt;Modul care&amp;nbsp;&lt;/font&gt;&lt;/b&gt;&lt;div&gt;&lt;span style=&quot;font-size: 16px;&quot;&gt;&lt;b&gt;procesează datele&lt;/b&gt;&lt;/span&gt;&lt;/div&gt;" style="text;html=1;align=center;verticalAlign=middle;resizable=0;points=[];autosize=1;strokeColor=none;fillColor=none;strokeWidth=4;" parent="CeDH94izONLsoh-cn26r-64" vertex="1">
          <mxGeometry x="-5" y="10" width="160" height="50" as="geometry" />
        </mxCell>
        <mxCell id="CeDH94izONLsoh-cn26r-71" style="edgeStyle=orthogonalEdgeStyle;rounded=0;orthogonalLoop=1;jettySize=auto;html=1;exitX=0.5;exitY=0;exitDx=0;exitDy=0;entryX=0.5;entryY=1;entryDx=0;entryDy=0;" parent="1" source="CeDH94izONLsoh-cn26r-68" target="CeDH94izONLsoh-cn26r-59" edge="1">
          <mxGeometry relative="1" as="geometry" />
        </mxCell>
        <mxCell id="CeDH94izONLsoh-cn26r-68" value="" style="swimlane;startSize=0;" parent="1" vertex="1">
          <mxGeometry x="780" y="540" width="160" height="70" as="geometry">
            <mxRectangle x="240" y="225" width="50" height="40" as="alternateBounds" />
          </mxGeometry>
        </mxCell>
        <mxCell id="CeDH94izONLsoh-cn26r-69" value="&lt;b&gt;&lt;font style=&quot;font-size: 16px;&quot;&gt;Modul care&amp;nbsp;&lt;/font&gt;&lt;/b&gt;&lt;div&gt;&lt;span style=&quot;font-size: 16px;&quot;&gt;&lt;b&gt;procesează datele&lt;/b&gt;&lt;/span&gt;&lt;/div&gt;" style="text;html=1;align=center;verticalAlign=middle;resizable=0;points=[];autosize=1;strokeColor=none;fillColor=none;strokeWidth=4;" parent="CeDH94izONLsoh-cn26r-68" vertex="1">
          <mxGeometry x="-5" y="10" width="160" height="50" as="geometry" />
        </mxCell>
        <mxCell id="CeDH94izONLsoh-cn26r-74" style="edgeStyle=orthogonalEdgeStyle;rounded=0;orthogonalLoop=1;jettySize=auto;html=1;exitX=0.5;exitY=0;exitDx=0;exitDy=0;entryX=0.25;entryY=1;entryDx=0;entryDy=0;" parent="1" source="CeDH94izONLsoh-cn26r-72" target="CeDH94izONLsoh-cn26r-49" edge="1">
          <mxGeometry relative="1" as="geometry" />
        </mxCell>
        <mxCell id="CeDH94izONLsoh-cn26r-72" value="" style="swimlane;startSize=0;" parent="1" vertex="1">
          <mxGeometry x="440" y="330" width="160" height="70" as="geometry">
            <mxRectangle x="240" y="225" width="50" height="40" as="alternateBounds" />
          </mxGeometry>
        </mxCell>
        <mxCell id="CeDH94izONLsoh-cn26r-73" value="&lt;span style=&quot;font-size: 16px;&quot;&gt;&lt;b&gt;Database&lt;/b&gt;&lt;/span&gt;" style="text;html=1;align=center;verticalAlign=middle;resizable=0;points=[];autosize=1;strokeColor=none;fillColor=none;strokeWidth=4;" parent="CeDH94izONLsoh-cn26r-72" vertex="1">
          <mxGeometry x="32.5" y="20" width="90" height="30" as="geometry" />
        </mxCell>
      </root>
    </mxGraphModel>
  </diagram>
</mxfile>
